<svg width="100" height="100" viewBox="0 0 100 100" fill="none" xmlns="http://www.w3.org/2000/svg">
<defs>
  <linearGradient id="goldGradient" x1="0%" y1="0%" x2="100%" y2="100%">
    <stop offset="0%" style="stop-color:#FFD700;stop-opacity:1" />
    <stop offset="50%" style="stop-color:#FFED4E;stop-opacity:1" />
    <stop offset="100%" style="stop-color:#FFA500;stop-opacity:1" />
  </linearGradient>
  <radialGradient id="heartGradient" cx="50%" cy="50%" r="50%">
    <stop offset="0%" style="stop-color:#FFD700;stop-opacity:1" />
    <stop offset="100%" style="stop-color:#B8860B;stop-opacity:1" />
  </radialGradient>
</defs>
<circle cx="50" cy="50" r="50" fill="black"/>
<!-- Heart shape -->
<path d="M50 75C50 75 25 55 25 35C25 25 32 20 40 20C45 20 50 25 50 30C50 25 55 20 60 20C68 20 75 25 75 35C75 55 50 75 50 75Z" fill="url(#heartGradient)" stroke="url(#goldGradient)" stroke-width="2"/>
<!-- Female silhouette inside heart -->
<path d="M45 35C45 32 47 30 50 30S55 32 55 35V45H50H45V35Z" fill="url(#goldGradient)"/>
<ellipse cx="50" cy="52" rx="8" ry="12" fill="url(#goldGradient)"/>
<path d="M42 60L45 55H55L58 60L55 65H45L42 60Z" fill="url(#goldGradient)"/>
</svg>